<svg width="15" height="15" viewBox="0 0 15 15" fill="none" xmlns="http://www.w3.org/2000/svg">
<path d="M10.4202 9.16981H9.75751L9.52827 8.94057C10.3452 7.99441 10.8371 6.76482 10.8371 5.41853C10.8371 2.42583 8.41122 0 5.41853 0C2.42583 0 0 2.42583 0 5.41853C0 8.41122 2.42583 10.8371 5.41853 10.8371C6.76482 10.8371 7.99441 10.3452 8.94057 9.53244L9.16981 9.76168V10.4202L13.3379 14.58L14.58 13.3379L10.4202 9.16981V9.16981ZM5.41853 9.16981C3.34698 9.16981 1.66724 7.49007 1.66724 5.41853C1.66724 3.34698 3.34698 1.66724 5.41853 1.66724C7.49007 1.66724 9.16981 3.34698 9.16981 5.41853C9.16981 7.49007 7.49007 9.16981 5.41853 9.16981Z" fill="#9AA0A6"/>
</svg>
